# xmcd CD database file
#
# Track frame offsets:
#	150
#	10022
#	40572
#	67192
#	94350
#
# Disc length: 1302 seconds
#
# Revision: 0
# Processed by: cddbd v1.5.1PL0 Copyright (c) Steve Scherf et al.
# Submitted via: CDex 1.51
#
DISCID=38051405
DTITLE=光栄 - 三國志満漢全席・拾壱
DYEAR=1995
DGENRE=アニメ
TTITLE0=三國志満漢全席・拾壱
TTITLE1=三國志満漢全席・拾壱
TTITLE2=三國志満漢全席・拾壱
TTITLE3=三國志満漢全席・拾壱
TTITLE4=三國志満漢全席・拾壱
EXTD=YEAR: 1995/9/25
EXTT0=
EXTT1=
EXTT2=
EXTT3=
EXTT4=
PLAYORDER=
